<mxfile host="app.diagrams.net" modified="2024-01-22T08:26:47.475Z" agent="Mozilla/5.0 (Windows NT 10.0; Win64; x64) AppleWebKit/537.36 (KHTML, like Gecko) Chrome/120.0.0.0 Safari/537.36" etag="9koVf5AxVlI8k5_3yvSz" version="22.1.21" type="github">
  <diagram name="Page-1" id="qbuFXEDZn-jWL9eGEKkT">
    <mxGraphModel dx="787" dy="439" grid="1" gridSize="10" guides="1" tooltips="1" connect="1" arrows="1" fold="1" page="1" pageScale="1" pageWidth="850" pageHeight="1100" math="0" shadow="0">
      <root>
        <mxCell id="0" />
        <mxCell id="1" parent="0" />
        <mxCell id="QLr3mYLhtkEuDTHHhEBT-1" value="" style="rounded=0;whiteSpace=wrap;html=1;" vertex="1" parent="1">
          <mxGeometry x="170" y="40" width="280" height="480" as="geometry" />
        </mxCell>
        <mxCell id="QLr3mYLhtkEuDTHHhEBT-2" value="" style="ellipse;whiteSpace=wrap;html=1;" vertex="1" parent="1">
          <mxGeometry x="240" y="90" width="140" height="90" as="geometry" />
        </mxCell>
        <mxCell id="QLr3mYLhtkEuDTHHhEBT-3" value="catatan pengunjung perpustakaan digital" style="text;html=1;strokeColor=none;fillColor=none;align=center;verticalAlign=middle;whiteSpace=wrap;rounded=0;" vertex="1" parent="1">
          <mxGeometry x="180" y="50" width="270" height="30" as="geometry" />
        </mxCell>
        <mxCell id="QLr3mYLhtkEuDTHHhEBT-4" value="&amp;nbsp;mengisi buku kunjungan" style="text;html=1;strokeColor=none;fillColor=none;align=center;verticalAlign=middle;whiteSpace=wrap;rounded=0;" vertex="1" parent="1">
          <mxGeometry x="245" y="130" width="135" height="10" as="geometry" />
        </mxCell>
        <mxCell id="QLr3mYLhtkEuDTHHhEBT-5" value="" style="ellipse;whiteSpace=wrap;html=1;" vertex="1" parent="1">
          <mxGeometry x="242.5" y="190" width="140" height="90" as="geometry" />
        </mxCell>
        <mxCell id="QLr3mYLhtkEuDTHHhEBT-6" value="mencari buku" style="text;html=1;strokeColor=none;fillColor=none;align=center;verticalAlign=middle;whiteSpace=wrap;rounded=0;" vertex="1" parent="1">
          <mxGeometry x="265" y="220" width="90" height="30" as="geometry" />
        </mxCell>
        <mxCell id="QLr3mYLhtkEuDTHHhEBT-7" value="" style="ellipse;whiteSpace=wrap;html=1;" vertex="1" parent="1">
          <mxGeometry x="245" y="290" width="140" height="90" as="geometry" />
        </mxCell>
        <mxCell id="QLr3mYLhtkEuDTHHhEBT-8" value="Membaca buku kunjungan" style="text;html=1;strokeColor=none;fillColor=none;align=center;verticalAlign=middle;whiteSpace=wrap;rounded=0;" vertex="1" parent="1">
          <mxGeometry x="252.5" y="325" width="120" height="20" as="geometry" />
        </mxCell>
        <mxCell id="QLr3mYLhtkEuDTHHhEBT-9" value="" style="ellipse;whiteSpace=wrap;html=1;" vertex="1" parent="1">
          <mxGeometry x="245" y="390" width="140" height="90" as="geometry" />
        </mxCell>
        <mxCell id="QLr3mYLhtkEuDTHHhEBT-10" value="Rekap buku" style="text;html=1;strokeColor=none;fillColor=none;align=center;verticalAlign=middle;whiteSpace=wrap;rounded=0;" vertex="1" parent="1">
          <mxGeometry x="277.5" y="420" width="70" height="30" as="geometry" />
        </mxCell>
        <mxCell id="QLr3mYLhtkEuDTHHhEBT-11" value="perpustakawan" style="shape=umlActor;verticalLabelPosition=bottom;verticalAlign=top;html=1;outlineConnect=0;" vertex="1" parent="1">
          <mxGeometry x="650" y="230" width="80" height="125" as="geometry" />
        </mxCell>
        <mxCell id="QLr3mYLhtkEuDTHHhEBT-12" value="user" style="shape=umlActor;verticalLabelPosition=bottom;verticalAlign=top;html=1;outlineConnect=0;" vertex="1" parent="1">
          <mxGeometry x="40" y="245" width="80" height="125" as="geometry" />
        </mxCell>
        <mxCell id="QLr3mYLhtkEuDTHHhEBT-24" value="" style="endArrow=none;html=1;rounded=0;entryX=0.007;entryY=0.611;entryDx=0;entryDy=0;entryPerimeter=0;" edge="1" parent="1" target="QLr3mYLhtkEuDTHHhEBT-2">
          <mxGeometry width="50" height="50" relative="1" as="geometry">
            <mxPoint x="260" y="270" as="sourcePoint" />
            <mxPoint x="240" y="180" as="targetPoint" />
            <Array as="points">
              <mxPoint x="100" y="320" />
            </Array>
          </mxGeometry>
        </mxCell>
        <mxCell id="QLr3mYLhtkEuDTHHhEBT-26" value="" style="endArrow=none;html=1;rounded=0;exitX=0.993;exitY=0.411;exitDx=0;exitDy=0;exitPerimeter=0;" edge="1" parent="1" source="QLr3mYLhtkEuDTHHhEBT-7">
          <mxGeometry width="50" height="50" relative="1" as="geometry">
            <mxPoint x="570" y="345" as="sourcePoint" />
            <mxPoint x="630" y="290" as="targetPoint" />
          </mxGeometry>
        </mxCell>
        <mxCell id="QLr3mYLhtkEuDTHHhEBT-27" value="" style="endArrow=none;html=1;rounded=0;exitX=1;exitY=0.5;exitDx=0;exitDy=0;" edge="1" parent="1" source="QLr3mYLhtkEuDTHHhEBT-9">
          <mxGeometry width="50" height="50" relative="1" as="geometry">
            <mxPoint x="580" y="340" as="sourcePoint" />
            <mxPoint x="630" y="290" as="targetPoint" />
          </mxGeometry>
        </mxCell>
      </root>
    </mxGraphModel>
  </diagram>
</mxfile>
